<?xml version="1.0" encoding="UTF-8" standalone="no"?>
<!-- Created with Inkscape (http://www.inkscape.org/) -->

<svg
   xmlns:dc="http://purl.org/dc/elements/1.1/"
   xmlns:cc="http://creativecommons.org/ns#"
   xmlns:rdf="http://www.w3.org/1999/02/22-rdf-syntax-ns#"
   xmlns:svg="http://www.w3.org/2000/svg"
   xmlns="http://www.w3.org/2000/svg"
   xmlns:sodipodi="http://sodipodi.sourceforge.net/DTD/sodipodi-0.dtd"
   xmlns:inkscape="http://www.inkscape.org/namespaces/inkscape"
   width="210mm"
   height="297mm"
   viewBox="0 0 744.09448819 1052.3622047"
   id="svg3360"
   version="1.1"
   inkscape:version="0.91 r13725"
   sodipodi:docname="Logo.svg">
  <defs
     id="defs3362" />
  <sodipodi:namedview
     id="base"
     pagecolor="#ffffff"
     bordercolor="#666666"
     borderopacity="1.0"
     inkscape:pageopacity="0.0"
     inkscape:pageshadow="2"
     inkscape:zoom="0.35"
     inkscape:cx="375"
     inkscape:cy="520"
     inkscape:document-units="px"
     inkscape:current-layer="layer1"
     showgrid="false"
     showborder="false"
     showguides="true"
     inkscape:guide-bbox="true"
     inkscape:window-width="1366"
     inkscape:window-height="705"
     inkscape:window-x="-8"
     inkscape:window-y="-8"
     inkscape:window-maximized="1" />
  <metadata
     id="metadata3365">
    <rdf:RDF>
      <cc:Work
         rdf:about="">
        <dc:format>image/svg+xml</dc:format>
        <dc:type
           rdf:resource="http://purl.org/dc/dcmitype/StillImage" />
        <dc:title></dc:title>
      </cc:Work>
    </rdf:RDF>
  </metadata>
  <g
     inkscape:label="Layer 1"
     inkscape:groupmode="layer"
     id="layer1">
    <path
       style="fill:none;fill-rule:evenodd;stroke:#000000;stroke-width:1px;stroke-linecap:butt;stroke-linejoin:miter;stroke-opacity:1"
       d="m -549.36274,737.67332 c -15.71511,94.24118 -22.57901,201.38377 -21.78011,316.68888 l -128.57143,0 c 0,-1014.28571 682.857134,-1001.714282 682.857134,-1001.714282 l -2.85714,998.857182 -117.142854,0 0,-314.28575 z M -134,622.93364 -136.85714,165.79078 c -193.16146,51.75746 -357.15991,269.16071 -391.90395,457.74496 z"
       id="path3370"
       inkscape:connector-curvature="0"
       sodipodi:nodetypes="cccccccccccc" />
    <path
       style="fill:none;fill-rule:evenodd;stroke:#000000;stroke-width:0.98971361px;stroke-linecap:butt;stroke-linejoin:miter;stroke-opacity:1"
       d="m 135.8029,954.07538 -2.16502,-787.53292 c 249.87242,50.09851 450.90365,488.96937 450.90365,784.91969 z m 567.34505,97.43482 C 703.14795,48.642755 20.280571,52.642755 20.280571,52.642755 l 0,998.867445 z"
       id="path3378"
       inkscape:connector-curvature="0"
       sodipodi:nodetypes="cccccccc" />
    <path
       style="fill:none"
       d="m -697.23419,999.6479 c 8.15561,-223.55724 40.71316,-383.99824 108.39746,-534.17393 92.2014,-204.57339 256.00654,-347.25113 456.88416,-397.9558 34.6518,-8.746656 109.075254,-19.699939 112.254174,-16.521023 0.90942,0.90941 0.72265,226.138573 -0.41503,500.509253 l -2.06852,498.8558 -56.694737,0 -56.694737,0 0,-157.14285 0,-157.14286 -163.57143,0.009 c -89.96429,0.006 -183.63303,0.8416 -208.15275,1.8586 l -44.58133,1.84911 -6.08729,48.85566 c -9.45395,75.876 -11.84986,108.72286 -13.82757,189.56997 l -1.83467,75.00097 -62.78103,0 -62.78104,0 1.95434,-53.5714 z m 448.55622,-373.94035 116.89346,-1.7472 -1.81314,-228.62352 c -0.9972,-125.74292 -2.45277,-229.26314 -3.23454,-230.04492 -0.78178,-0.78178 -13.27149,2.7166 -27.75492,7.77418 -137.46566,48.00274 -270.30231,187.83 -336.71892,354.43897 -11.24643,28.21217 -28.49269,87.1802 -28.5329,97.55909 -0.02,5.14414 -17.31142,5.10457 281.16096,0.6434 z"
       id="path3415"
       inkscape:connector-curvature="0" />
    <path
       style="fill:none"
       d="m 21.539953,550.3622 c 0,-493.720094 0.06857,-500.005122 5.453945,-500.005122 15.284486,0 72.6662,9.49242 102.293572,16.922001 48.89291,12.260748 86.86695,26.413396 134.33459,50.065521 223.39062,111.31085 366.40558,335.35563 416.84366,653.01986 11.57787,72.91884 20.93035,186.63746 21.08933,256.43124 l 0.0539,23.5716 -340.03437,0 -340.034401,0 0,-500.0051 z M 586.55435,937.3496 c 0.66147,-0.67526 -0.31766,-21.4257 -2.17571,-46.1121 -20.12078,-267.32774 -161.5073,-554.60126 -331.42243,-673.39448 -26.43692,-18.48291 -70.65763,-39.94356 -98.01414,-47.567 -12.05724,-3.35999 -22.16056,-5.68031 -22.4518,-5.15627 -0.29124,0.52405 -0.0719,175.69105 0.48753,389.26001 l 1.01706,388.30724 225.67847,-2.05484 c 124.12319,-1.13017 226.21965,-2.60732 226.88102,-3.28256 z"
       id="path3417"
       inkscape:connector-curvature="0" />
    <path
       style="fill:none"
       d="m -697.14465,1015.3622 c 9.99537,-210.00228 28.72066,-328.32511 71.80824,-453.74763 53.89532,-156.88245 129.28867,-272.16043 236.90784,-362.2369 90.32618,-75.60236 207.70052,-127.639289 322.857147,-143.135986 12.571427,-1.691745 27.678567,-3.721899 33.571427,-4.511454 l 10.71428,-1.435555 0,426.713155 c 0,234.69223 -0.849,459.70743 -1.88666,500.03377 l -1.88665,73.3206 -55.256197,0 -55.256197,0 0,-157.3426 0,-157.3426 -206.90649,0.91403 c -113.79859,0.50272 -207.73969,1.74797 -208.75801,2.76726 -2.91688,2.91963 -15.20977,111.18911 -18.48406,162.79806 -1.63226,25.72751 -2.97372,64.2764 -2.98103,85.66422 -0.007,21.38783 -0.83089,44.85213 -1.8302,52.14293 l -1.81692,13.2559 -61.2992,0 -61.29919,0 1.80187,-37.8572 z m 397.1026,-387.94268 c 92.61257,-1.58286 168.62651,-3.17543 168.91988,-3.53906 1.42949,-1.77183 -4.27328,-457.15181 -5.7434,-458.62192 -5.22145,-5.22146 -81.06297,28.09326 -118.06322,51.86136 -112.44149,72.22979 -215.81547,209.44699 -258.58507,343.2423 -14.90728,46.63417 -18.35542,64.11866 -13.27854,67.33163 5.14681,3.2572 21.26324,3.23772 226.75035,-0.27428 l 0,-3e-5 z"
       id="path3419"
       inkscape:connector-curvature="0" />
    <path
       style="fill:none"
       d="m 21.903944,626.79156 c 0.200185,-232.96667 1.144729,-457.64755 2.098981,-499.29083 l 1.734989,-75.715065 13.993181,0.952119 c 24.551087,1.670495 88.472385,14.661915 122.337465,24.863966 76.79181,23.13398 166.03693,71.17288 227.49217,122.45457 29.7149,24.79577 77.6973,74.15883 102.28179,105.22489 108.91991,137.63592 175.3684,323.27634 198.46584,554.46409 4.76391,47.68354 11.30037,152.4022 11.30037,181.0408 l 0,9.5812 -340.03437,0 -340.034407,0 0.363991,-423.57574 z m 443.919636,313.19304 121.04109,-1.72053 0,-16.31003 c 0,-24.98193 -5.3004,-74.38262 -12.79826,-119.28245 C 535.09903,569.32152 411.05222,336.87727 267.10476,227.47374 232.04337,200.82624 173.27028,172.13976 141.18169,166.01212 l -10.49489,-2.00411 0,124.1322 c 0,68.27272 0.83623,243.75683 1.85828,389.96467 l 1.85829,265.83248 105.18958,-1.11613 c 57.85428,-0.61386 159.65806,-1.89033 226.23063,-2.83663 z"
       id="path3421"
       inkscape:connector-curvature="0" />
    <path
       style="fill:none"
       d="m -697.56565,1038.2193 c 0.8579,-8.25 2.30965,-31.7142 3.22612,-52.14281 9.00074,-200.63131 35.46394,-340.85006 90.2492,-478.19734 C -501.03354,249.51456 -304.40694,88.70001 -50.457286,55.080495 l 29.6856,-3.929971 -1.501743,494.605856 c -0.825971,272.0332 -2.429171,496.85582 -3.562714,499.60582 -1.860086,4.5127 -7.321286,5 -56.040971,5 l -53.980026,0 0,-157.29765 0,-157.29766 -206.90657,0.86909 c -113.79861,0.478 -207.72696,1.69028 -208.72968,2.694 -2.1398,2.14191 -11.23246,71.93005 -15.76923,121.03222 -1.74229,18.85715 -4.34693,69 -5.78809,111.42858 -1.44116,42.42852 -2.66217,78.10712 -2.71336,79.28572 -0.0512,1.1786 -27.82844,2.1428 -61.72723,2.1428 l -61.63416,0 1.55981,-15 z m 528.54434,-412.62572 39.69294,-1.83715 -1.85774,-173.12568 c -1.02175,-95.21912 -2.66706,-198.51855 -3.65623,-229.55426 -1.66372,-52.20013 -2.19175,-56.42857 -7.04655,-56.42857 -7.07394,0 -42.98548,14.44126 -71.8476,28.89238 -138.08854,69.14025 -260.31055,225.31616 -309.12273,394.99868 -7.52854,26.17094 -8.82984,36.37008 -5.14078,40.29157 2.29634,2.441 292.92171,-0.17972 358.97869,-3.23697 z"
       id="path3447"
       inkscape:connector-curvature="0" />
    <path
       style="fill:none"
       d="m -697.56565,1038.2193 c 0.8579,-8.25 2.30965,-31.7142 3.22612,-52.14281 9.00074,-200.63131 35.46394,-340.85006 90.2492,-478.19734 C -501.03354,249.51456 -304.40694,88.70001 -50.457286,55.080495 l 29.6856,-3.929971 -1.501743,494.605856 c -0.825971,272.0332 -2.429171,496.85582 -3.562714,499.60582 -1.860086,4.5127 -7.321286,5 -56.040971,5 l -53.980026,0 0,-157.29765 0,-157.29766 -206.90657,0.86909 c -113.79861,0.478 -207.72696,1.69028 -208.72968,2.694 -2.1398,2.14191 -11.23246,71.93005 -15.76923,121.03222 -1.74229,18.85715 -4.34693,69 -5.78809,111.42858 -1.44116,42.42852 -2.66217,78.10712 -2.71336,79.28572 -0.0512,1.1786 -27.82844,2.1428 -61.72723,2.1428 l -61.63416,0 1.55981,-15 z m 528.54434,-412.62572 39.69294,-1.83715 -1.85774,-173.12568 c -1.02175,-95.21912 -2.66706,-198.51855 -3.65623,-229.55426 -1.66372,-52.20013 -2.19175,-56.42857 -7.04655,-56.42857 -7.07394,0 -42.98548,14.44126 -71.8476,28.89238 -138.08854,69.14025 -260.31055,225.31616 -309.12273,394.99868 -7.52854,26.17094 -8.82984,36.37008 -5.14078,40.29157 2.29634,2.441 292.92171,-0.17972 358.97869,-3.23697 z"
       id="path3449"
       inkscape:connector-curvature="0" />
    <path
       style="fill:none"
       d="m -697.56565,1038.2193 c 0.8579,-8.25 2.30965,-31.7142 3.22612,-52.14281 9.00074,-200.63131 35.46394,-340.85006 90.2492,-478.19734 C -501.03354,249.51456 -304.40694,88.70001 -50.457286,55.080495 l 29.6856,-3.929971 -1.501743,494.605856 c -0.825971,272.0332 -2.429171,496.85582 -3.562714,499.60582 -1.860086,4.5127 -7.321286,5 -56.040971,5 l -53.980026,0 0,-157.29765 0,-157.29766 -206.90657,0.86909 c -113.79861,0.478 -207.72696,1.69028 -208.72968,2.694 -2.1398,2.14191 -11.23246,71.93005 -15.76923,121.03222 -1.74229,18.85715 -4.34693,69 -5.78809,111.42858 -1.44116,42.42852 -2.66217,78.10712 -2.71336,79.28572 -0.0512,1.1786 -27.82844,2.1428 -61.72723,2.1428 l -61.63416,0 1.55981,-15 z m 528.54434,-412.62572 39.69294,-1.83715 -1.85774,-173.12568 c -1.02175,-95.21912 -2.66706,-198.51855 -3.65623,-229.55426 -1.66372,-52.20013 -2.19175,-56.42857 -7.04655,-56.42857 -7.07394,0 -42.98548,14.44126 -71.8476,28.89238 -138.08854,69.14025 -260.31055,225.31616 -309.12273,394.99868 -7.52854,26.17094 -8.82984,36.37008 -5.14078,40.29157 2.29634,2.441 292.92171,-0.17972 358.97869,-3.23697 z"
       id="path3451"
       inkscape:connector-curvature="0" />
    <path
       style="fill:none"
       d="m -697.56565,1038.2193 c 0.8579,-8.25 2.30965,-31.7142 3.22612,-52.14281 9.00074,-200.63131 35.46394,-340.85006 90.2492,-478.19734 C -501.03354,249.51456 -304.40694,88.70001 -50.457286,55.080495 l 29.6856,-3.929971 -1.501743,494.605856 c -0.825971,272.0332 -2.429171,496.85582 -3.562714,499.60582 -1.860086,4.5127 -7.321286,5 -56.040971,5 l -53.980026,0 0,-157.29765 0,-157.29766 -206.90657,0.86909 c -113.79861,0.478 -207.72696,1.69028 -208.72968,2.694 -2.1398,2.14191 -11.23246,71.93005 -15.76923,121.03222 -1.74229,18.85715 -4.34693,69 -5.78809,111.42858 -1.44116,42.42852 -2.66217,78.10712 -2.71336,79.28572 -0.0512,1.1786 -27.82844,2.1428 -61.72723,2.1428 l -61.63416,0 1.55981,-15 z m 528.54434,-412.62572 39.69294,-1.83715 -1.85774,-173.12568 c -1.02175,-95.21912 -2.66706,-198.51855 -3.65623,-229.55426 -1.66372,-52.20013 -2.19175,-56.42857 -7.04655,-56.42857 -7.07394,0 -42.98548,14.44126 -71.8476,28.89238 -138.08854,69.14025 -260.31055,225.31616 -309.12273,394.99868 -7.52854,26.17094 -8.82984,36.37008 -5.14078,40.29157 2.29634,2.441 292.92171,-0.17972 358.97869,-3.23697 z"
       id="path3453"
       inkscape:connector-curvature="0" />
  </g>
</svg>
